HIERARCHY
ROOT Hips
{
	OFFSET -0.001795 -0.223333 0.028219
	CHANNELS 6 Xposition Yposition Zposition Zrotation Yrotation Xrotation 
	JOINT LeftUpLeg
	{
		OFFSET 0.069520 -0.091406 -0.006815
		CHANNELS 3 Zrotation Yrotation Xrotation
		JOINT LeftLeg
		{
			OFFSET 0.034277 -0.375199 -0.004496
			CHANNELS 3 Zrotation Yrotation Xrotation
			JOINT LeftFoot
			{
				OFFSET -0.013596 -0.397961 -0.043693
				CHANNELS 3 Zrotation Yrotation Xrotation
				JOINT LeftToe
				{
					OFFSET 0.026358 -0.055791 0.119288
					CHANNELS 3 Zrotation Yrotation Xrotation
					End Site
					{
						OFFSET 0.000000 0.000000 0.000000
					}
				}
			}
		}
	}
	JOINT RightUpLeg
	{
		OFFSET -0.067670 -0.090522 -0.004320
		CHANNELS 3 Zrotation Yrotation Xrotation
		JOINT RightLeg
		{
			OFFSET -0.038290 -0.382569 -0.008850
			CHANNELS 3 Zrotation Yrotation Xrotation
			JOINT RightFoot
			{
				OFFSET 0.015774 -0.398415 -0.042312
				CHANNELS 3 Zrotation Yrotation Xrotation
				JOINT RightToe
				{
					OFFSET -0.025372 -0.048144 0.123348
					CHANNELS 3 Zrotation Yrotation Xrotation
					End Site
					{
						OFFSET 0.000000 0.000000 0.000000
					}
				}
			}
		}
	}
	JOINT Spine
	{
		OFFSET -0.002533 0.108963 -0.026696
		CHANNELS 3 Zrotation Yrotation Xrotation
		JOINT Spine1
		{
			OFFSET 0.005487 0.135180 0.001092
			CHANNELS 3 Zrotation Yrotation Xrotation
			JOINT Spine2
			{
				OFFSET 0.001457 0.052922 0.025425
				CHANNELS 3 Zrotation Yrotation Xrotation
				JOINT Neck
				{
					OFFSET -0.002778 0.213870 -0.042857
					CHANNELS 3 Zrotation Yrotation Xrotation
					JOINT Head
					{
						OFFSET 0.005152 0.064970 0.051349
						CHANNELS 3 Zrotation Yrotation Xrotation
						End Site
						{
							OFFSET 0.000000 0.000000 0.000000
						}
					}
				}
				JOINT LeftShoulder
				{
					OFFSET 0.078845 0.121749 -0.034090
					CHANNELS 3 Zrotation Yrotation Xrotation
					JOINT LeftArm
					{
						OFFSET 0.090977 0.030469 -0.008868
						CHANNELS 3 Zrotation Yrotation Xrotation
						JOINT LeftForeArm
						{
							OFFSET 0.259612 -0.012772 -0.027456
							CHANNELS 3 Zrotation Yrotation Xrotation
							JOINT LeftHand
							{
								OFFSET 0.249234 0.008986 -0.001171
								CHANNELS 3 Zrotation Yrotation Xrotation
								End Site
								{
									OFFSET 0.000000 0.000000 0.000000
								}
							}
						}
					}
				}
				JOINT RightShoulder
				{
					OFFSET -0.081759 0.118833 -0.038615
					CHANNELS 3 Zrotation Yrotation Xrotation
					JOINT RightArm
					{
						OFFSET -0.096012 0.032551 -0.009143
						CHANNELS 3 Zrotation Yrotation Xrotation
						JOINT RightForeArm
						{
							OFFSET -0.253742 -0.013329 -0.021401
							CHANNELS 3 Zrotation Yrotation Xrotation
							JOINT RightHand
							{
								OFFSET -0.255298 0.007772 -0.005559
								CHANNELS 3 Zrotation Yrotation Xrotation
								End Site
								{
									OFFSET 0.000000 0.000000 0.000000
								}
							}
						}
					}
				}
			}
		}
	}
}
MOTION
Frames: 16
Frame Time: 0.050000
0.000000 0.929570 0.000000 2.619336 20.465317 0.135924 -1.297347 0.601484 8.619899 -2.512898 0.099640 2.821650 4.735003 9.953769 2.379011 0.000000 0.000000 0.000000 -1.301616 1.044803 -20.508163 4.804451 -1.523128 15.695665 -10.602003 -21.554255 15.692548 0.000000 0.000000 0.000000 6.145545 -0.778045 6.653839 4.781557 -2.527048 1.098913 -9.705710 -0.986717 0.286022 7.607677 -3.200479 -11.381350 0.000000 0.000000 0.000000 -19.672815 -11.543125 0.875474 -36.767466 -14.394696 1.126240 -89.927714 -60.105126 58.405500 0.000000 0.000000 0.000000 13.242535 -3.497164 -1.240646 41.350574 -7.324386 -6.018847 103.948716 45.354527 64.003016 0.000000 0.000000 0.000000 
0.002575 0.928952 0.028458 2.718257 20.219594 0.820847 -1.482492 0.678500 9.649131 -1.750393 0.010395 3.523663 4.914930 10.187202 2.238795 0.000000 0.000000 0.000000 -0.809995 1.136134 -19.155661 4.946626 -1.592833 16.083178 -11.089041 -22.952584 13.851724 0.000000 0.000000 0.000000 7.428447 -0.829179 6.000127 4.360875 -2.159007 0.135334 -10.339191 -0.931163 0.164753 7.058603 -2.547726 -12.667001 0.000000 0.000000 0.000000 -18.914732 -10.723416 0.549419 -38.134422 -15.335644 1.377715 -99.826308 -60.551811 67.645249 0.000000 0.000000 0.000000 13.091756 -5.203579 -2.091460 41.706797 -9.651432 -6.687153 102.919186 43.576763 60.919765 0.000000 0.000000 0.000000 
0.003475 0.930648 0.058239 2.755941 16.742167 1.633608 -0.891097 0.584443 7.800951 -2.697594 -0.037459 8.244859 4.601751 11.174929 5.934741 0.000000 0.000000 0.000000 -0.151846 1.350416 -18.238496 4.717641 -1.330992 15.997386 -8.709143 -19.492022 11.134705 0.000000 0.000000 0.000000 8.249960 -0.867194 5.712110 2.348676 -0.842608 -2.808694 -8.689401 -0.490706 2.284409 6.684598 -2.659415 -11.717187 0.000000 0.000000 0.000000 -18.325923 -8.420723 -0.064462 -39.379485 -15.707920 1.215416 -112.926037 -60.356089 81.329918 0.000000 0.000000 0.000000 14.980671 -5.278369 -2.332615 40.115030 -11.920568 -7.331010 98.793255 43.877508 56.668362 0.000000 0.000000 0.000000 
0.002573 0.933415 0.087718 2.651490 15.365504 1.989484 1.173404 0.160520 3.341410 -6.826150 0.404298 17.145218 6.374782 15.667981 12.719820 0.000000 0.000000 0.000000 0.797767 1.448077 -16.435272 4.483069 -1.151047 15.311221 -8.081667 -18.670701 9.727808 0.000000 0.000000 0.000000 8.844801 -0.722336 4.144871 3.512031 -1.879076 1.400399 -9.320386 -0.633239 -1.958278 6.207093 -2.626783 -10.235676 0.000000 0.000000 0.000000 -18.623137 -6.121505 -1.171038 -39.439099 -15.091607 1.302542 -125.419515 -59.461435 94.979187 0.000000 0.000000 0.000000 13.891044 -4.893215 -2.336701 40.145798 -12.913914 -7.254257 97.004682 43.406153 53.921075 0.000000 0.000000 0.000000 
0.000010 0.936592 0.115105 2.265917 12.827515 1.350387 5.189107 -0.320007 -2.656965 -13.484743 2.313326 29.654304 6.650204 17.078958 20.600436 0.000000 0.000000 0.000000 3.186723 1.439799 -12.340976 2.326337 -0.362015 12.171149 -6.921534 -16.779325 8.193001 0.000000 0.000000 0.000000 9.540322 -0.773291 4.421945 2.439956 -1.163175 -0.174641 -7.825882 0.613078 -0.069819 6.108636 -2.889762 -8.886814 0.000000 0.000000 0.000000 -18.859748 -6.876872 -0.664675 -38.761873 -13.756554 0.695223 -138.515840 -58.334907 111.716251 0.000000 0.000000 0.000000 14.045628 -5.034954 -2.423919 40.440293 -13.068907 -7.519781 92.478951 43.718261 50.538199 0.000000 0.000000 0.000000 
-0.002398 0.937487 0.139648 1.803683 9.736687 0.421356 7.704388 -0.554848 -10.268002 -17.403135 4.930002 41.638711 7.786534 18.715238 28.714960 0.000000 0.000000 0.000000 4.755615 1.202253 -9.066215 1.326108 -0.035492 10.750749 -5.549445 -14.214408 6.642204 0.000000 0.000000 0.000000 9.812540 -0.883052 5.503710 2.229016 -1.083947 0.100655 -7.209513 2.445363 -0.610161 7.771866 -4.103164 -8.539996 0.000000 0.000000 0.000000 -18.610575 -5.744221 -1.243009 -38.174649 -13.090394 0.499003 -143.142702 -56.682831 116.719930 0.000000 0.000000 0.000000 14.720894 -5.220333 -2.526454 40.417766 -11.977840 -7.234258 89.462584 44.384924 49.003088 0.000000 0.000000 0.000000 
-0.004068 0.938840 0.162007 1.975545 6.307823 -0.850062 8.441319 -0.594299 -16.013997 -17.411577 6.305248 46.896155 8.425997 19.114628 28.402667 0.000000 0.000000 0.000000 5.539037 0.689735 -5.102882 -0.019728 0.280241 8.805403 -4.053764 -11.109267 5.362909 0.000000 0.000000 0.000000 9.098668 -0.982975 7.281564 1.641378 -0.776145 -0.223044 -6.409185 3.801217 -0.256867 9.656436 -5.304362 -9.275905 0.000000 0.000000 0.000000 -18.284962 -5.969897 -0.921751 -36.059787 -13.342568 0.460237 -143.515721 -57.663245 118.720428 0.000000 0.000000 0.000000 15.385181 -4.899443 -2.461216 39.580017 -9.912220 -6.606712 87.772561 44.758786 47.936130 0.000000 0.000000 0.000000 
-0.004602 0.941526 0.183461 2.042437 1.534095 -1.443970 7.860535 -0.632040 -21.231881 -14.130192 5.720849 45.402523 7.691952 17.315600 17.438943 0.000000 0.000000 0.000000 5.439964 0.324317 -2.833114 -0.343446 0.381192 8.330097 -1.989601 -6.727917 4.983121 0.000000 0.000000 0.000000 8.253027 -0.953120 8.138849 1.419979 -0.748077 1.268868 -5.936365 5.262545 -1.179386 10.045146 -6.126042 -7.210465 0.000000 0.000000 0.000000 -18.614342 -5.781175 -0.847555 -34.393451 -12.275104 0.163350 -135.799756 -59.665323 110.189343 0.000000 0.000000 0.000000 16.233849 -3.966233 -2.206733 39.577021 -6.643730 -5.669071 87.563079 45.224279 47.822715 0.000000 0.000000 0.000000 
-0.004081 0.944070 0.205025 1.928287 -2.587141 -1.693095 5.940106 -0.849961 -23.942464 -9.419075 3.396933 36.156488 6.130353 13.776157 8.095105 0.000000 0.000000 0.000000 5.395043 -0.035217 -0.570711 -0.888713 0.453704 7.160682 -0.122019 -2.882050 5.116236 0.000000 0.000000 0.000000 7.979781 -1.013033 9.341582 0.611667 -0.325637 1.129801 -4.559099 5.564674 -1.422257 9.642086 -5.909448 -7.268658 0.000000 0.000000 0.000000 -18.405772 -5.358363 -0.521703 -34.030169 -12.608434 0.086229 -119.111775 -60.864013 91.326909 0.000000 0.000000 0.000000 15.269435 -2.918349 -1.998333 39.637354 -3.034079 -4.516393 89.393792 46.223071 49.304576 0.000000 0.000000 0.000000 
-0.002647 0.945724 0.228152 1.720900 -7.146382 -1.120142 4.393875 -0.935705 -24.706916 -4.832923 1.273426 22.806333 2.823774 8.508226 12.412653 0.000000 0.000000 0.000000 5.028479 -0.169805 0.177590 -1.223850 0.533377 7.201700 1.868712 1.146636 5.263047 0.000000 0.000000 0.000000 7.683052 -0.950975 9.303495 -0.005087 -0.001049 2.006123 -3.469602 5.298792 -2.331952 8.375128 -5.070172 -7.381538 0.000000 0.000000 0.000000 -19.011533 -5.263639 0.006182 -33.507290 -11.333594 -0.378106 -103.610020 -60.762629 75.661780 0.000000 0.000000 0.000000 14.690384 -2.158159 -2.078600 39.887157 -0.825359 -3.671953 92.734868 46.776499 51.036973 0.000000 0.000000 0.000000 
-0.001068 0.945709 0.253727 2.068751 -10.715413 -1.842826 2.325778 -1.140015 -22.593592 -1.369752 0.120175 8.948287 -1.598772 1.851330 15.994126 0.000000 0.000000 0.000000 3.839331 -0.423696 2.493538 -1.405593 0.566757 7.067792 3.350239 4.406189 4.951855 0.000000 0.000000 0.000000 7.053432 -0.989491 11.068677 -0.832495 0.413307 0.815837 -2.630118 4.749014 -1.135049 8.212843 -5.027161 -7.890416 0.000000 0.000000 0.000000 -19.188915 -5.655897 0.912391 -33.286881 -10.996980 -0.765417 -89.473939 -59.226375 61.829385 0.000000 0.000000 0.000000 14.641020 -2.693858 -2.766264 38.998792 1.721150 -2.798017 97.524303 46.266484 52.858857 0.000000 0.000000 0.000000 
0.000513 0.943926 0.281277 1.647082 -15.709885 -1.497424 2.579462 -0.820463 -21.409048 0.018668 -0.039473 1.761577 -4.005129 -0.949951 21.222964 0.000000 0.000000 0.000000 2.862136 -0.521409 3.975699 -1.452555 0.580209 6.954001 5.372185 9.409365 4.117524 0.000000 0.000000 0.000000 6.963403 -0.911465 10.905032 -1.433101 0.790206 2.099905 -2.633099 5.387220 -1.859018 8.298350 -5.321803 -6.762652 0.000000 0.000000 0.000000 -18.017581 -5.332226 1.174229 -33.833523 -9.874476 -1.132274 -81.939185 -56.735798 53.588166 0.000000 0.000000 0.000000 15.173352 -1.801152 -2.725247 38.679622 1.974155 -2.546562 100.790507 45.835892 54.014984 0.000000 0.000000 0.000000 
0.002326 0.940677 0.310238 0.841460 -19.716715 -1.034407 2.117540 -0.732083 -19.949408 2.148235 -0.350628 1.459394 -3.504613 -0.493087 22.949283 0.000000 0.000000 0.000000 2.359028 -0.573130 5.219640 -1.855229 0.678621 7.328750 6.821749 13.376550 3.371336 0.000000 0.000000 0.000000 6.346548 -0.827760 11.001348 -1.971469 1.154832 2.822749 -1.620468 5.575200 -2.504676 7.394613 -4.998326 -4.965755 0.000000 0.000000 0.000000 -18.136671 -4.241382 1.017308 -33.507975 -7.967093 -1.694161 -81.621352 -54.758321 52.113829 0.000000 0.000000 0.000000 14.737718 -2.337219 -3.266360 37.898157 2.235115 -2.263902 102.168519 45.913869 54.121018 0.000000 0.000000 0.000000 
0.004438 0.937547 0.340389 0.416988 -23.253754 0.126090 2.213899 -0.567372 -19.462961 2.779315 -0.481709 2.457893 -1.930922 1.156091 23.728615 0.000000 0.000000 0.000000 1.324010 -0.491630 5.848604 -2.278460 0.813691 8.056219 7.206414 16.623055 1.333995 0.000000 0.000000 0.000000 5.710239 -0.717612 10.084926 -2.624434 1.531585 2.697928 -0.782379 5.987717 -2.011237 6.294800 -4.441918 -3.533585 0.000000 0.000000 0.000000 -18.543136 -3.543816 1.031592 -33.115855 -6.334626 -2.225570 -79.969685 -53.627954 50.357452 0.000000 0.000000 0.000000 14.442079 -2.898394 -3.735010 36.016607 1.496787 -2.285294 102.680513 45.922915 53.774946 0.000000 0.000000 0.000000 
0.006253 0.936095 0.372039 0.167557 -26.427965 1.403974 1.877777 -0.503156 -19.669612 3.534329 -0.654431 4.396867 0.264696 3.370152 22.969694 0.000000 0.000000 0.000000 0.418713 -0.356473 5.781716 -2.556126 1.065974 9.905983 6.290103 16.620113 -0.547410 0.000000 0.000000 0.000000 5.347592 -0.632709 8.906309 -3.832343 2.224837 2.845158 -0.145653 5.788214 -1.859371 5.675571 -4.011720 -3.554424 0.000000 0.000000 0.000000 -18.759700 -1.591761 0.432299 -32.439954 -3.430414 -3.006180 -80.146808 -52.056668 49.718848 0.000000 0.000000 0.000000 14.405540 -3.577198 -4.363796 35.546951 0.635753 -2.397239 97.808064 44.978439 47.790004 0.000000 0.000000 0.000000 
0.007288 0.937428 0.405154 0.917898 -29.184655 1.670274 1.327585 -0.531694 -18.722857 2.184623 -0.400537 5.658938 2.273871 5.384606 20.563383 0.000000 0.000000 0.000000 -1.511722 -0.054502 5.102590 -2.285611 1.482012 13.336888 5.656022 14.879817 -0.542256 0.000000 0.000000 0.000000 4.140148 -0.524623 8.639784 -4.556396 2.577739 2.376165 -0.078274 6.041267 -1.810531 5.353541 -3.897086 -2.479850 0.000000 0.000000 0.000000 -17.217669 -0.249707 -0.024911 -33.757719 -0.442876 -3.847012 -77.553948 -48.548490 45.015643 0.000000 0.000000 0.000000 14.355738 -3.896027 -4.694732 35.063543 -1.833114 -2.967663 92.897175 43.855658 42.495867 0.000000 0.000000 0.000000 
